<svg width="165" height="80" viewBox="0 0 165 80" fill="none" xmlns="http://www.w3.org/2000/svg">
<path d="M62.2426 16.8421C62.2426 16.8421 57.6659 16.1098 50.3432 15.1945C44.4851 14.6453 16.1098 11.7162 0 0C0 0 4.21053 17.2082 12.6316 19.9542C18.6728 21.7849 41.373 24.897 54.5538 26.5446C59.3135 27.0938 62.2426 31.8535 60.2288 36.2471L52.7231 53.0892C52.7231 53.0892 49.9771 59.3135 53.8215 65.3547L69.7483 28.1922C71.9451 23.0664 68.8329 17.7574 62.2426 16.8421Z" fill="white"/>
<path d="M54.0047 41.0067L55.2862 36.247C56.0184 33.3179 54.0047 30.572 51.0756 30.0228L14.2793 24.5308L17.7576 31.1212C19.4052 34.2333 22.5173 36.4301 26.1786 36.9793L54.0047 41.0067Z" fill="white"/>
<path d="M109.474 36.0639L110.938 40.8237L138.764 36.7962C142.426 36.247 145.355 34.0502 147.186 30.9381L150.664 24.5308L113.867 29.8397C110.755 30.3889 108.742 33.3179 109.474 36.0639Z" fill="white"/>
<path d="M47.5974 43.7529L25.8125 41.5562L28.3754 46.1328C30.3892 49.6111 33.8674 51.8079 37.7118 52.3571L48.5127 53.6385L50.5265 48.3296C51.2587 46.1328 49.7942 43.936 47.5974 43.7529Z" fill="white"/>
<path d="M114.416 15.1945C107.094 16.1098 102.517 16.8421 102.517 16.8421C95.9267 17.5744 92.8146 23.0664 95.0114 28.1922L110.938 65.3547C114.783 59.1304 112.037 53.0892 112.037 53.0892L104.531 36.2471C102.517 31.8535 105.446 27.2769 110.206 26.5446C123.387 24.897 146.27 21.968 152.128 19.9542C160.549 17.2082 164.76 0 164.76 0C148.65 11.7162 120.275 14.6453 114.416 15.1945Z" fill="white"/>
<path d="M114.233 48.3296L116.43 53.8216L127.048 52.3571C130.892 51.8079 134.371 49.428 136.384 46.1328L138.947 41.5562L117.163 43.7529C114.966 43.936 113.501 46.1328 114.233 48.3296Z" fill="white"/>
<path d="M82.197 9.70264L58.0322 64.2564C56.3846 68.1008 56.2015 72.4944 57.8491 76.3388L59.3137 79.8171L71.9452 52.3571H72.6775C75.2404 52.3571 77.4372 51.2587 78.7187 49.0619L80.0002 46.8651H74.6912L82.5631 29.8399L90.618 46.8651H85.3091L86.4075 49.0619C87.689 51.2587 89.8857 52.3571 92.4487 52.3571H93.1809L106.179 79.8171L107.643 76.3388C109.291 72.4944 109.108 68.1008 107.46 64.2564L82.197 9.70264Z" fill="white"/>
</svg>
