<svg width="22" height="24" viewBox="0 0 22 24" fill="none" xmlns="http://www.w3.org/2000/svg">
<path d="M20 21C19.7348 21 19.4804 20.8946 19.2929 20.7071C19.1054 20.5196 19 20.2652 19 20C18.969 18.1319 18.7884 16.2693 18.46 14.43C18.1933 12.9673 18.0395 11.4863 18 10C18 8.14348 17.2625 6.36301 15.9497 5.05025C14.637 3.7375 12.8565 3 11 3C9.14348 3 7.36301 3.7375 6.05025 5.05025C4.7375 6.36301 4 8.14348 4 10C3.96045 11.4863 3.80667 12.9673 3.54 14.43C3.21162 16.2693 3.03104 18.1319 3 20C3 20.2652 2.89464 20.5196 2.70711 20.7071C2.51957 20.8946 2.26522 21 2 21C1.73478 21 1.48043 20.8946 1.29289 20.7071C1.10536 20.5196 1 20.2652 1 20C1.03361 18.028 1.22422 16.0618 1.57 14.12C1.81686 12.7595 1.9606 11.3822 2 10C2 7.61305 2.94821 5.32387 4.63604 3.63604C6.32387 1.94821 8.61305 1 11 1C13.3869 1 15.6761 1.94821 17.364 3.63604C19.0518 5.32387 20 7.61305 20 10C20.0394 11.3822 20.1831 12.7595 20.43 14.12C20.7758 16.0618 20.9664 18.028 21 20C21 20.2652 20.8946 20.5196 20.7071 20.7071C20.5196 20.8946 20.2652 21 20 21Z" fill="#BDBDBD"/>
<path d="M21 21H1C0.734784 21 0.48043 20.8946 0.292893 20.7071C0.105357 20.5196 0 20.2652 0 20C0 19.7348 0.105357 19.4804 0.292893 19.2929C0.48043 19.1054 0.734784 19 1 19H21C21.2652 19 21.5196 19.1054 21.7071 19.2929C21.8946 19.4804 22 19.7348 22 20C22 20.2652 21.8946 20.5196 21.7071 20.7071C21.5196 20.8946 21.2652 21 21 21Z" fill="#BDBDBD"/>
<path d="M11 24C9.93913 24 8.92172 23.5786 8.17157 22.8284C7.42143 22.0783 7 21.0609 7 20C7 19.7348 7.10536 19.4804 7.29289 19.2929C7.48043 19.1054 7.73478 19 8 19C8.26522 19 8.51957 19.1054 8.70711 19.2929C8.89464 19.4804 9 19.7348 9 20C9 20.5304 9.21071 21.0391 9.58579 21.4142C9.96086 21.7893 10.4696 22 11 22C11.5304 22 12.0391 21.7893 12.4142 21.4142C12.7893 21.0391 13 20.5304 13 20C13 19.7348 13.1054 19.4804 13.2929 19.2929C13.4804 19.1054 13.7348 19 14 19C14.2652 19 14.5196 19.1054 14.7071 19.2929C14.8946 19.4804 15 19.7348 15 20C15 21.0609 14.5786 22.0783 13.8284 22.8284C13.0783 23.5786 12.0609 24 11 24Z" fill="#BDBDBD"/>
<path d="M11 3C10.7348 3 10.4804 2.89464 10.2929 2.70711C10.1054 2.51957 10 2.26522 10 2V1C10 0.734784 10.1054 0.48043 10.2929 0.292893C10.4804 0.105357 10.7348 0 11 0C11.2652 0 11.5196 0.105357 11.7071 0.292893C11.8946 0.48043 12 0.734784 12 1V2C12 2.26522 11.8946 2.51957 11.7071 2.70711C11.5196 2.89464 11.2652 3 11 3Z" fill="#BDBDBD"/>
</svg>
