<svg width="30" height="30" viewBox="0 0 30 30" fill="none" xmlns="http://www.w3.org/2000/svg">
<path d="M26.25 30H3.75C2.75544 30 1.80161 29.6049 1.09835 28.9017C0.395088 28.1984 0 27.2446 0 26.25L0 6.25C0 5.25544 0.395088 4.30161 1.09835 3.59835C1.80161 2.89509 2.75544 2.5 3.75 2.5H26.25C27.2446 2.5 28.1984 2.89509 28.9017 3.59835C29.6049 4.30161 30 5.25544 30 6.25V26.25C30 27.2446 29.6049 28.1984 28.9017 28.9017C28.1984 29.6049 27.2446 30 26.25 30ZM2.5 11.25V26.25C2.5 26.5815 2.6317 26.8995 2.86612 27.1339C3.10054 27.3683 3.41848 27.5 3.75 27.5H26.25C26.5815 27.5 26.8995 27.3683 27.1339 27.1339C27.3683 26.8995 27.5 26.5815 27.5 26.25V11.25H2.5ZM2.5 8.75H27.5V6.25C27.5 5.91848 27.3683 5.60054 27.1339 5.36612C26.8995 5.1317 26.5815 5 26.25 5H3.75C3.41848 5 3.10054 5.1317 2.86612 5.36612C2.6317 5.60054 2.5 5.91848 2.5 6.25V8.75Z" fill="white"/>
<path d="M8.75 7.5C8.41848 7.5 8.10054 7.3683 7.86612 7.13388C7.6317 6.89946 7.5 6.58152 7.5 6.25V1.25C7.5 0.918479 7.6317 0.600537 7.86612 0.366117C8.10054 0.131696 8.41848 0 8.75 0C9.08152 0 9.39946 0.131696 9.63388 0.366117C9.8683 0.600537 10 0.918479 10 1.25V6.25C10 6.58152 9.8683 6.89946 9.63388 7.13388C9.39946 7.3683 9.08152 7.5 8.75 7.5Z" fill="white"/>
<path d="M21.25 7.5C20.9185 7.5 20.6005 7.3683 20.3661 7.13388C20.1317 6.89946 20 6.58152 20 6.25V1.25C20 0.918479 20.1317 0.600537 20.3661 0.366117C20.6005 0.131696 20.9185 0 21.25 0C21.5815 0 21.8995 0.131696 22.1339 0.366117C22.3683 0.600537 22.5 0.918479 22.5 1.25V6.25C22.5 6.58152 22.3683 6.89946 22.1339 7.13388C21.8995 7.3683 21.5815 7.5 21.25 7.5Z" fill="white"/>
</svg>
