<svg width="15" height="26" viewBox="0 0 15 26" fill="none" xmlns="http://www.w3.org/2000/svg">
<path d="M14.2497 12.9983L14.2497 12.997C14.2478 12.8273 14.2133 12.6594 14.1479 12.5036L13.9174 12.6004L14.1479 12.5036C14.0826 12.3482 13.9878 12.2076 13.8683 12.0913C13.868 12.0911 13.8678 12.0908 13.8675 12.0906L2.7261 1.09198L2.72039 1.08635L2.71434 1.0811C2.48168 0.879141 2.18275 0.777513 1.87828 0.802071C1.57401 0.826614 1.29411 0.974705 1.09359 1.20985C0.893506 1.44448 0.786241 1.749 0.789225 2.06115C0.792209 2.37331 0.905286 2.67559 1.11002 2.90597L1.11547 2.9121L1.12132 2.91787L11.3409 12.9999L1.12132 23.0819L1.12104 23.0822C0.891837 23.309 0.758967 23.6208 0.746142 23.9477C0.733319 24.2745 0.84127 24.5964 1.051 24.8422C1.26125 25.0886 1.55791 25.2392 1.87756 25.2537C2.19727 25.2683 2.50562 25.1451 2.73545 24.9177C2.7355 24.9177 2.73555 24.9176 2.7356 24.9176L13.8782 13.9178L13.8793 13.9168C13.9984 13.7978 14.0921 13.6546 14.1555 13.4967L13.9235 13.4036L14.1555 13.4967C14.2189 13.3389 14.2508 13.1692 14.2497 12.9983Z" fill="#7161EF" stroke="#7161EF" stroke-width="0.5"/>
</svg>
