<svg width="15" height="26" viewBox="0 0 15 26" fill="none" xmlns="http://www.w3.org/2000/svg">
<path d="M0.750252 13.0017L0.750267 13.003C0.752226 13.1727 0.786733 13.3406 0.852102 13.4964L1.08262 13.3996L0.852103 13.4964C0.91735 13.6518 1.01222 13.7924 1.13173 13.9087C1.13197 13.9089 1.13221 13.9092 1.13245 13.9094L12.2739 24.908L12.2796 24.9136L12.2857 24.9189C12.5183 25.1209 12.8173 25.2225 13.1217 25.1979C13.426 25.1734 13.7059 25.0253 13.9064 24.7902C14.1065 24.5555 14.2138 24.251 14.2108 23.9388C14.2078 23.6267 14.0947 23.3244 13.89 23.094L13.8845 23.0879L13.8787 23.0821L3.65908 13.0001L13.8787 2.91808L13.879 2.9178C14.1082 2.69098 14.241 2.37919 14.2539 2.05233C14.2667 1.7255 14.1587 1.40363 13.949 1.15783C13.7387 0.911428 13.4421 0.760818 13.1224 0.746272C12.8027 0.731724 12.4944 0.854897 12.2646 1.08226C12.2645 1.08231 12.2645 1.08236 12.2644 1.08241L1.12176 12.0822L1.12073 12.0832C1.00164 12.2022 0.907902 12.3454 0.844511 12.5033L1.07651 12.5964L0.84451 12.5033C0.781127 12.6611 0.749182 12.8308 0.750252 13.0017Z" fill="#7161EF" stroke="#7161EF" stroke-width="0.5"/>
</svg>
