<svg width="14" height="8" viewBox="0 0 14 8" fill="none" xmlns="http://www.w3.org/2000/svg">
<g clip-path="url(#clip0)">
<path d="M6.99998 7.99992C6.91901 8.00046 6.83882 7.98448 6.7645 7.953C6.69018 7.92151 6.62337 7.87522 6.56831 7.81706L0.151647 0.959921C0.0464444 0.847772 -0.00897029 0.699278 -0.00240652 0.547106C0.00415726 0.394933 0.0721618 0.251548 0.186647 0.148493C0.301132 0.045437 0.45272 -0.00884701 0.608062 -0.00241719C0.763405 0.00401263 0.909778 0.0706295 1.01498 0.182778L6.99998 6.58278L12.985 0.182778C13.0921 0.0823971 13.2341 0.0257015 13.3823 0.0242069C13.5305 0.0227123 13.6737 0.0765307 13.7829 0.174731C13.892 0.272932 13.9589 0.408151 13.97 0.552925C13.9811 0.697699 13.9355 0.841173 13.8425 0.954207L7.42581 7.81135C7.37194 7.86984 7.3063 7.91678 7.23302 7.94923C7.15974 7.98169 7.0804 7.99894 6.99998 7.99992Z" fill="#BDBDBD"/>
</g>
<defs>
<clipPath id="clip0">
<rect width="14" height="8" fill="white"/>
</clipPath>
</defs>
</svg>
