<svg width="30" height="30" viewBox="0 0 30 30" fill="none" xmlns="http://www.w3.org/2000/svg">
<path d="M10 13.75H3.75C2.75544 13.75 1.80161 13.3549 1.09835 12.6517C0.395088 11.9484 0 10.9946 0 10L0 3.75C0 2.75544 0.395088 1.80161 1.09835 1.09835C1.80161 0.395088 2.75544 0 3.75 0L10 0C10.9946 0 11.9484 0.395088 12.6517 1.09835C13.3549 1.80161 13.75 2.75544 13.75 3.75V10C13.75 10.9946 13.3549 11.9484 12.6517 12.6517C11.9484 13.3549 10.9946 13.75 10 13.75ZM3.75 2.5C3.41848 2.5 3.10054 2.6317 2.86612 2.86612C2.6317 3.10054 2.5 3.41848 2.5 3.75V10C2.5 10.3315 2.6317 10.6495 2.86612 10.8839C3.10054 11.1183 3.41848 11.25 3.75 11.25H10C10.3315 11.25 10.6495 11.1183 10.8839 10.8839C11.1183 10.6495 11.25 10.3315 11.25 10V3.75C11.25 3.41848 11.1183 3.10054 10.8839 2.86612C10.6495 2.6317 10.3315 2.5 10 2.5H3.75Z" fill="white"/>
<path d="M10 30H3.75C2.75544 30 1.80161 29.6049 1.09835 28.9017C0.395088 28.1984 0 27.2446 0 26.25L0 20C0 19.0054 0.395088 18.0516 1.09835 17.3483C1.80161 16.6451 2.75544 16.25 3.75 16.25H10C10.9946 16.25 11.9484 16.6451 12.6517 17.3483C13.3549 18.0516 13.75 19.0054 13.75 20V26.25C13.75 27.2446 13.3549 28.1984 12.6517 28.9017C11.9484 29.6049 10.9946 30 10 30ZM3.75 18.75C3.41848 18.75 3.10054 18.8817 2.86612 19.1161C2.6317 19.3505 2.5 19.6685 2.5 20V26.25C2.5 26.5815 2.6317 26.8995 2.86612 27.1339C3.10054 27.3683 3.41848 27.5 3.75 27.5H10C10.3315 27.5 10.6495 27.3683 10.8839 27.1339C11.1183 26.8995 11.25 26.5815 11.25 26.25V20C11.25 19.6685 11.1183 19.3505 10.8839 19.1161C10.6495 18.8817 10.3315 18.75 10 18.75H3.75Z" fill="white"/>
<path d="M26.25 13.75H20C19.0054 13.75 18.0516 13.3549 17.3483 12.6517C16.6451 11.9484 16.25 10.9946 16.25 10V3.75C16.25 2.75544 16.6451 1.80161 17.3483 1.09835C18.0516 0.395088 19.0054 0 20 0L26.25 0C27.2446 0 28.1984 0.395088 28.9017 1.09835C29.6049 1.80161 30 2.75544 30 3.75V10C30 10.9946 29.6049 11.9484 28.9017 12.6517C28.1984 13.3549 27.2446 13.75 26.25 13.75ZM20 2.5C19.6685 2.5 19.3505 2.6317 19.1161 2.86612C18.8817 3.10054 18.75 3.41848 18.75 3.75V10C18.75 10.3315 18.8817 10.6495 19.1161 10.8839C19.3505 11.1183 19.6685 11.25 20 11.25H26.25C26.5815 11.25 26.8995 11.1183 27.1339 10.8839C27.3683 10.6495 27.5 10.3315 27.5 10V3.75C27.5 3.41848 27.3683 3.10054 27.1339 2.86612C26.8995 2.6317 26.5815 2.5 26.25 2.5H20Z" fill="white"/>
<path d="M26.25 30H20C19.0054 30 18.0516 29.6049 17.3483 28.9017C16.6451 28.1984 16.25 27.2446 16.25 26.25V20C16.25 19.0054 16.6451 18.0516 17.3483 17.3483C18.0516 16.6451 19.0054 16.25 20 16.25H26.25C27.2446 16.25 28.1984 16.6451 28.9017 17.3483C29.6049 18.0516 30 19.0054 30 20V26.25C30 27.2446 29.6049 28.1984 28.9017 28.9017C28.1984 29.6049 27.2446 30 26.25 30ZM20 18.75C19.6685 18.75 19.3505 18.8817 19.1161 19.1161C18.8817 19.3505 18.75 19.6685 18.75 20V26.25C18.75 26.5815 18.8817 26.8995 19.1161 27.1339C19.3505 27.3683 19.6685 27.5 20 27.5H26.25C26.5815 27.5 26.8995 27.3683 27.1339 27.1339C27.3683 26.8995 27.5 26.5815 27.5 26.25V20C27.5 19.6685 27.3683 19.3505 27.1339 19.1161C26.8995 18.8817 26.5815 18.75 26.25 18.75H20Z" fill="white"/>
</svg>
