<svg width="4" height="20" viewBox="0 0 4 20" fill="none" xmlns="http://www.w3.org/2000/svg">
<path d="M2 16C3.10457 16 4 16.8954 4 18C4 19.1046 3.10457 20 2 20C0.895431 20 -3.91405e-08 19.1046 -8.74227e-08 18C-1.35705e-07 16.8954 0.895431 16 2 16Z" fill="black"/>
<path d="M2 8C3.10457 8 4 8.89543 4 10C4 11.1046 3.10457 12 2 12C0.89543 12 -3.88831e-07 11.1046 -4.37114e-07 10C-4.85396e-07 8.89543 0.89543 8 2 8Z" fill="black"/>
<path d="M2 -8.74228e-08C3.10457 -1.35705e-07 4 0.895429 4 2C4 3.10457 3.10457 4 2 4C0.89543 4 -7.38522e-07 3.10457 -7.86805e-07 2C-8.35087e-07 0.89543 0.89543 -3.91405e-08 2 -8.74228e-08Z" fill="black"/>
</svg>
