<svg width="34" height="33" viewBox="0 0 34 33" fill="none" xmlns="http://www.w3.org/2000/svg">
<g clip-path="url(#clip0)">
<path d="M16.7442 16.3098C15.1357 16.3098 13.5633 15.8379 12.2258 14.9538C10.8884 14.0696 9.84597 12.8129 9.23041 11.3426C8.61485 9.87228 8.45379 8.25439 8.7676 6.69352C9.08141 5.13265 9.85599 3.6989 10.9934 2.57357C12.1308 1.44825 13.5799 0.681889 15.1576 0.371412C16.7352 0.0609354 18.3704 0.220283 19.8565 0.829305C21.3426 1.43833 22.6128 2.46967 23.5064 3.79291C24.4001 5.11616 24.8771 6.67187 24.8771 8.26332C24.8771 10.3974 24.0202 12.4441 22.495 13.9531C20.9698 15.4621 18.9012 16.3098 16.7442 16.3098ZM16.7442 2.89897C15.6718 2.89897 14.6236 3.21359 13.7319 3.80303C12.8403 4.39247 12.1454 5.23027 11.735 6.21047C11.3246 7.19068 11.2173 8.26927 11.4265 9.30985C11.6357 10.3504 12.1521 11.3063 12.9103 12.0565C13.6686 12.8067 14.6347 13.3176 15.6864 13.5246C16.7382 13.7316 17.8283 13.6253 18.8191 13.2193C19.8098 12.8133 20.6566 12.1258 21.2523 11.2436C21.8481 10.3614 22.1661 9.32429 22.1661 8.26332C22.1661 6.84061 21.5949 5.47616 20.5781 4.47015C19.5613 3.46414 18.1822 2.89897 16.7442 2.89897Z" fill="#7161EF"/>
<path d="M28.9435 32.4033H4.54493C4.18544 32.4033 3.84066 32.262 3.58646 32.0105C3.33226 31.759 3.18945 31.4179 3.18945 31.0622V27.039C3.18945 24.5492 4.18911 22.1615 5.96852 20.4009C7.74793 18.6404 10.1613 17.6514 12.6778 17.6514H20.8107C23.3271 17.6514 25.7405 18.6404 27.5199 20.4009C29.2993 22.1615 30.299 24.5492 30.299 27.039V31.0622C30.299 31.4179 30.1562 31.759 29.902 32.0105C29.6478 32.262 29.303 32.4033 28.9435 32.4033ZM5.90041 29.7211H27.588V27.039C27.588 25.2606 26.874 23.555 25.603 22.2975C24.332 21.04 22.6081 20.3335 20.8107 20.3335H12.6778C10.8803 20.3335 9.15646 21.04 7.88546 22.2975C6.61445 23.555 5.90041 25.2606 5.90041 27.039V29.7211Z" fill="#7161EF"/>
</g>
<defs>
<clipPath id="clip0">
<rect width="32.5314" height="32.1861" fill="white" transform="translate(0.478516 0.216797)"/>
</clipPath>
</defs>
</svg>
