<svg width="26" height="30" viewBox="0 0 26 30" fill="none" xmlns="http://www.w3.org/2000/svg">
<path d="M13 15C11.5166 15 10.0666 14.5601 8.83323 13.736C7.59986 12.9119 6.63856 11.7406 6.07091 10.3701C5.50325 8.99968 5.35472 7.49168 5.64411 6.03683C5.9335 4.58197 6.64781 3.2456 7.6967 2.1967C8.7456 1.14781 10.082 0.433503 11.5368 0.144114C12.9917 -0.145275 14.4997 0.00324965 15.8701 0.570907C17.2406 1.13856 18.4119 2.09986 19.236 3.33323C20.0601 4.56659 20.5 6.01664 20.5 7.5C20.5 9.48913 19.7098 11.3968 18.3033 12.8033C16.8968 14.2098 14.9891 15 13 15ZM13 2.5C12.0111 2.5 11.0444 2.79325 10.2222 3.34265C9.39991 3.89206 8.75904 4.67296 8.38061 5.58659C8.00217 6.50022 7.90315 7.50555 8.09608 8.47545C8.289 9.44536 8.76521 10.3363 9.46447 11.0355C10.1637 11.7348 11.0546 12.211 12.0246 12.4039C12.9945 12.5969 13.9998 12.4978 14.9134 12.1194C15.8271 11.741 16.6079 11.1001 17.1574 10.2779C17.7068 9.45561 18 8.48891 18 7.5C18 6.17392 17.4732 4.90215 16.5355 3.96447C15.5979 3.02679 14.3261 2.5 13 2.5Z" fill="white"/>
<path d="M24.25 30H1.75C1.41848 30 1.10054 29.8683 0.866116 29.6339C0.631696 29.3995 0.5 29.0815 0.5 28.75V25C0.5 22.6794 1.42187 20.4538 3.06282 18.8128C4.70376 17.1719 6.92936 16.25 9.25 16.25H16.75C19.0706 16.25 21.2962 17.1719 22.9372 18.8128C24.5781 20.4538 25.5 22.6794 25.5 25V28.75C25.5 29.0815 25.3683 29.3995 25.1339 29.6339C24.8995 29.8683 24.5815 30 24.25 30ZM3 27.5H23V25C23 23.3424 22.3415 21.7527 21.1694 20.5806C19.9973 19.4085 18.4076 18.75 16.75 18.75H9.25C7.5924 18.75 6.00269 19.4085 4.83058 20.5806C3.65848 21.7527 3 23.3424 3 25V27.5Z" fill="white"/>
</svg>
