<svg width="14" height="12" viewBox="0 0 14 12" fill="none" xmlns="http://www.w3.org/2000/svg">
<path d="M6.32541 1.36242C6.20921 1.24526 6.07096 1.15227 5.91863 1.08881C5.76631 1.02535 5.60293 0.992676 5.43791 0.992676C5.2729 0.992676 5.10952 1.02535 4.95719 1.08881C4.80487 1.15227 4.66662 1.24526 4.55041 1.36242L0.800412 5.11242C0.683251 5.22863 0.590259 5.36688 0.526798 5.5192C0.463337 5.67153 0.430664 5.83491 0.430664 5.99992C0.430664 6.16494 0.463337 6.32832 0.526798 6.48064C0.590259 6.63297 0.683251 6.77122 0.800412 6.88742L4.55041 10.6374C4.66662 10.7546 4.80487 10.8476 4.95719 10.911C5.10952 10.9745 5.2729 11.0072 5.43791 11.0072C5.60293 11.0072 5.76631 10.9745 5.91863 10.911C6.07096 10.8476 6.20921 10.7546 6.32541 10.6374C6.44257 10.5212 6.53556 10.383 6.59903 10.2306C6.66249 10.0783 6.69516 9.91494 6.69516 9.74992C6.69516 9.58491 6.66249 9.42153 6.59903 9.2692C6.53556 9.11688 6.44257 8.97863 6.32541 8.86242L3.45041 5.99992L6.32541 3.13742C6.44257 3.02122 6.53556 2.88297 6.59903 2.73064C6.66249 2.57832 6.69516 2.41494 6.69516 2.24992C6.69516 2.08491 6.66249 1.92153 6.59903 1.7692C6.53556 1.61688 6.44257 1.47863 6.32541 1.36242ZM10.3254 5.99992L13.2504 3.13742C13.4858 2.90204 13.618 2.5828 13.618 2.24992C13.618 1.91705 13.4858 1.5978 13.2504 1.36242C13.015 1.12704 12.6958 0.994809 12.3629 0.994809C12.03 0.994809 11.7108 1.12704 11.4754 1.36242L7.72541 5.11242C7.60825 5.22863 7.51526 5.36688 7.4518 5.5192C7.38834 5.67153 7.35566 5.83491 7.35566 5.99992C7.35566 6.16494 7.38834 6.32832 7.4518 6.48064C7.51526 6.63297 7.60825 6.77122 7.72541 6.88742L11.4754 10.6374C11.5916 10.7546 11.7299 10.8476 11.8822 10.911C12.0345 10.9745 12.1979 11.0072 12.3629 11.0072C12.5279 11.0072 12.6913 10.9745 12.8436 10.911C12.996 10.8476 13.1342 10.7546 13.2504 10.6374C13.3676 10.5212 13.4606 10.383 13.524 10.2306C13.5875 10.0783 13.6202 9.91494 13.6202 9.74992C13.6202 9.58491 13.5875 9.42153 13.524 9.2692C13.4606 9.11688 13.3676 8.97863 13.2504 8.86242L10.3254 5.99992Z" fill="#120A5C"/>
</svg>
