<svg width="24" height="24" viewBox="0 0 24 24" fill="none" xmlns="http://www.w3.org/2000/svg">
<path d="M17.4191 23.1001L17.4103 23.0986C17.2862 23.0779 17.1608 23.0584 17.0346 23.0388C16.7551 22.9954 16.4722 22.9515 16.194 22.8924L16.1908 22.8918L16.1909 22.8917C14.6859 22.5216 13.2435 21.9339 11.9099 21.1475C9.81482 19.9889 7.91612 18.5093 6.28355 16.7631L6.28319 16.7627C4.29875 14.6176 2.64515 12.2513 1.60134 9.49617C1.19531 8.5005 0.961703 7.44359 0.910438 6.37028C0.870857 5.83682 0.944121 5.30104 1.1255 4.79751C1.30703 4.29356 1.5928 3.83315 1.96433 3.44602L1.96511 3.44521L1.96511 3.44521C2.10675 3.30093 2.24775 3.15495 2.38906 3.00863C2.86228 2.51866 3.33908 2.02499 3.85549 1.57939L3.85582 1.57911C4.38396 1.12741 4.94398 0.894671 5.50681 0.900092C6.07001 0.905518 6.6215 1.14929 7.13232 1.62285L7.13257 1.62308C8.1844 2.60493 9.20047 3.63647 10.1778 4.68524C10.5532 5.08784 10.7618 5.6168 10.7618 6.16614C10.7618 6.71504 10.5535 7.24359 10.1787 7.64608C10.1784 7.6464 10.1781 7.64673 10.1778 7.64706L10.1046 7.57886C9.7555 7.97361 9.381 8.34446 9.00628 8.71553C8.82398 8.89606 8.64162 9.07664 8.46211 9.26005L17.4191 23.1001ZM17.4191 23.1001L17.4281 23.1L18.298 23.0883L18.3144 23.088L18.3299 23.0826C18.3737 23.0672 18.4183 23.054 18.4635 23.0431L17.4191 23.1001ZM14.5573 15.5646C11.9715 14.1368 9.83713 12.0199 8.3941 9.45184L19.2885 13.7998C19.2885 13.7998 19.2885 13.7997 19.2884 13.7997C18.9925 13.5186 18.6198 13.3307 18.2171 13.2595C17.8144 13.1882 17.3994 13.2368 17.0243 13.3991L17.0235 13.3994C16.5562 13.6063 16.1417 13.9152 15.8108 14.3033L14.5573 15.5646ZM21.1481 19.3059L21.1477 19.3064L19.7151 20.9081L19.6431 20.8386C19.6431 20.8387 19.643 20.8387 19.6429 20.8388C19.4009 21.0894 19.1075 21.285 18.7825 21.4124C18.4867 21.5283 18.1713 21.5853 17.8541 21.5802V21.5702L17.7594 21.5652C16.9785 21.5235 16.2088 21.3624 15.4773 21.0873L15.4771 21.0872C12.2357 19.8786 9.34439 17.8925 7.05967 15.3054L7.05968 15.3054L7.05842 15.304C5.73067 13.856 4.60876 12.2337 3.72404 10.4824L3.72352 10.4815C3.20943 9.49134 2.82586 8.43938 2.58229 7.35163L2.58247 7.35159L2.58076 7.34568C2.38243 6.66048 2.3909 5.93243 2.60505 5.25203C2.74147 4.93849 2.93376 4.65204 3.17269 4.40653L3.17272 4.40656L3.17465 4.40446C3.53189 4.01576 3.89705 3.66063 4.27875 3.28942C4.43358 3.13884 4.59113 2.98562 4.75197 2.82643C5.02001 2.56116 5.25772 2.44543 5.48197 2.44606C5.70644 2.44669 5.94432 2.56394 6.21255 2.82645C6.21267 2.82657 6.21279 2.82669 6.21292 2.82681L8.80064 5.41321C8.86855 5.48371 8.934 5.55174 8.99635 5.62505L8.99594 5.6254L9.00343 5.63256C9.07713 5.703 9.1354 5.78777 9.17463 5.88157C9.21387 5.97537 9.23323 6.07619 9.23153 6.17774C9.22982 6.27929 9.20708 6.37941 9.16472 6.47186C9.12236 6.56431 9.06127 6.6471 8.98524 6.71506L8.98501 6.7148L8.97929 6.72084C8.49255 7.23455 7.96876 7.74107 7.46934 8.22402C7.42299 8.26884 7.37685 8.31346 7.33096 8.35787C7.0572 8.62281 6.88664 8.85498 6.83529 9.12079C6.78391 9.3868 6.85588 9.66582 7.01461 10.0144L7.01457 10.0145L7.01579 10.017C7.63866 11.2899 8.46277 12.4552 9.45667 13.4684C10.5278 14.6609 11.7688 15.6907 13.1402 16.525L13.1415 16.5258C13.4535 16.7091 13.7739 16.8715 14.0944 17.0324C14.3147 17.158 14.5718 17.2039 14.8222 17.1623C15.0723 17.1207 15.3002 16.9945 15.4675 16.8049C15.8028 16.4786 16.1351 16.1472 16.467 15.8161C16.657 15.6266 16.8468 15.4372 17.037 15.249L17.0372 15.2488C17.0486 15.2375 17.0597 15.2264 17.0708 15.2154C17.1361 15.15 17.1964 15.0897 17.263 15.0353L17.2633 15.0357L17.2704 15.0285C17.3459 14.9529 17.4362 14.8935 17.5357 14.8539C17.6351 14.8142 17.7418 14.7953 17.8489 14.7982C17.9561 14.8012 18.0615 14.8259 18.1586 14.8709C18.2558 14.9159 18.3426 14.9802 18.4138 15.0598L18.4136 15.0599L18.4188 15.0649C18.8192 15.4526 19.2131 15.8463 19.6082 16.2412C19.7566 16.3895 19.9052 16.538 20.0544 16.6864C20.1694 16.8017 20.2847 16.9159 20.3999 17.03C20.7056 17.3328 21.0098 17.6341 21.3021 17.9483L21.3019 17.9485L21.3075 17.9536C21.3864 18.0265 21.4498 18.1144 21.4938 18.212C21.5378 18.3097 21.5616 18.4151 21.5638 18.5221C21.566 18.6291 21.5466 18.7354 21.5066 18.8348C21.4666 18.9341 21.4069 19.0245 21.3311 19.1005L21.3306 19.1L21.3235 19.1089C21.2688 19.1778 21.2103 19.2436 21.1481 19.3059Z" fill="#BDBDBD" stroke="#BDBDBD" stroke-width="0.2"/>
</svg>
