<svg width="24" height="24" viewBox="0 0 24 24" fill="none" xmlns="http://www.w3.org/2000/svg">
<path d="M10 20C8.02219 20 6.08879 19.4135 4.4443 18.3147C2.79981 17.2159 1.51809 15.6541 0.761209 13.8268C0.00433284 11.9996 -0.193701 9.98891 0.192152 8.0491C0.578004 6.10929 1.53041 4.32746 2.92894 2.92894C4.32746 1.53041 6.10929 0.578004 8.0491 0.192152C9.98891 -0.193701 11.9996 0.00433284 13.8268 0.761209C15.6541 1.51809 17.2159 2.79981 18.3147 4.4443C19.4135 6.08879 20 8.02219 20 10C20 12.6522 18.9464 15.1957 17.0711 17.0711C15.1957 18.9464 12.6522 20 10 20ZM10 2C8.41775 2 6.87104 2.4692 5.55544 3.34825C4.23985 4.2273 3.21447 5.47673 2.60897 6.93854C2.00347 8.40035 1.84504 10.0089 2.15372 11.5607C2.4624 13.1126 3.22433 14.538 4.34315 15.6569C5.46197 16.7757 6.88743 17.5376 8.43928 17.8463C9.99113 18.155 11.5997 17.9965 13.0615 17.391C14.5233 16.7855 15.7727 15.7602 16.6518 14.4446C17.5308 13.129 18 11.5823 18 10C18 7.87827 17.1572 5.84344 15.6569 4.34315C14.1566 2.84286 12.1217 2 10 2Z" fill="#BDBDBD"/>
<path d="M22.9998 24C22.8682 24.0008 22.7377 23.9756 22.6159 23.9258C22.494 23.876 22.3832 23.8027 22.2898 23.71L15.7898 17.21C15.6259 17.0187 15.5403 16.7727 15.5501 16.521C15.5598 16.2693 15.6641 16.0306 15.8422 15.8525C16.0203 15.6744 16.259 15.57 16.5107 15.5603C16.7624 15.5506 17.0085 15.6362 17.1998 15.8L23.6998 22.3C23.8368 22.4398 23.9298 22.6167 23.9673 22.8088C24.0047 23.001 23.9849 23.1999 23.9104 23.3809C23.8359 23.5619 23.7099 23.717 23.548 23.8271C23.3861 23.9371 23.1955 23.9973 22.9998 24Z" fill="#BDBDBD"/>
</svg>
