<svg width="30" height="30" viewBox="0 0 30 30" fill="none" xmlns="http://www.w3.org/2000/svg">
<path d="M17.5 29.999H12.5C12.1685 29.999 11.8505 29.8673 11.6161 29.6329C11.3817 29.3985 11.25 29.0805 11.25 28.749V26.9116C10.5516 26.6928 9.87396 26.4125 9.225 26.0741L7.975 27.3241C7.8582 27.4399 7.71968 27.5316 7.56738 27.5938C7.41509 27.656 7.25201 27.6875 7.0875 27.6866C6.92299 27.6875 6.75991 27.656 6.60762 27.5938C6.45532 27.5316 6.3168 27.4399 6.2 27.3241L2.625 23.8367C2.39219 23.6025 2.26151 23.2857 2.26151 22.9555C2.26151 22.6253 2.39219 22.3085 2.625 22.0743L3.875 20.8243C3.55063 20.1578 3.28706 19.4633 3.0875 18.7494H1.25C0.918479 18.7494 0.600537 18.6177 0.366117 18.3833C0.131696 18.1489 0 17.8309 0 17.4994V12.4996C0 12.1681 0.131696 11.8501 0.366117 11.6157C0.600537 11.3813 0.918479 11.2496 1.25 11.2496H3.0875C3.30599 10.5511 3.58626 9.87346 3.925 9.22469L2.675 7.97473C2.44219 7.74054 2.31151 7.42373 2.31151 7.09351C2.31151 6.76329 2.44219 6.44649 2.675 6.21229L6.1625 2.62491C6.3967 2.39211 6.71352 2.26143 7.04375 2.26143C7.37398 2.26143 7.6908 2.39211 7.925 2.62491L9.175 3.87487C9.84174 3.55089 10.5362 3.28734 11.25 3.0874V1.24996C11.25 0.918449 11.3817 0.600517 11.6161 0.366104C11.8505 0.131692 12.1685 0 12.5 0L17.5 0C17.8315 0 18.1495 0.131692 18.3839 0.366104C18.6183 0.600517 18.75 0.918449 18.75 1.24996V3.0874C19.4484 3.30625 20.126 3.5865 20.775 3.92487L22.025 2.67491C22.1418 2.55906 22.2803 2.46741 22.4326 2.40521C22.5849 2.343 22.748 2.31147 22.9125 2.31242C23.077 2.31147 23.2401 2.343 23.3924 2.40521C23.5447 2.46741 23.6832 2.55906 23.8 2.67491L27.375 6.16229C27.6078 6.39649 27.7385 6.71329 27.7385 7.04352C27.7385 7.37374 27.6078 7.69054 27.375 7.92474L26.125 9.17469C26.4494 9.84125 26.7129 10.5357 26.9125 11.2496H28.75C29.0815 11.2496 29.3995 11.3813 29.6339 11.6157C29.8683 11.8501 30 12.1681 30 12.4996V17.4994C30 17.8309 29.8683 18.1489 29.6339 18.3833C29.3995 18.6177 29.0815 18.7494 28.75 18.7494H26.9125C26.694 19.4479 26.4137 20.1255 26.075 20.7743L27.325 22.0243C27.5578 22.2585 27.6885 22.5753 27.6885 22.9055C27.6885 23.2357 27.5578 23.5525 27.325 23.7867L23.8375 27.3741C23.6033 27.6069 23.2865 27.7376 22.9562 27.7376C22.626 27.7376 22.3092 27.6069 22.075 27.3741L20.825 26.1241C20.176 26.4625 19.4984 26.7427 18.8 26.9616V28.749C18.8001 28.9175 18.7662 29.0842 18.7003 29.2392C18.6344 29.3942 18.5378 29.5343 18.4164 29.6511C18.295 29.7678 18.1512 29.8588 17.9937 29.9186C17.8362 29.9784 17.6683 30.0057 17.5 29.999ZM13.75 27.4991H16.25V25.9616C16.2429 25.6727 16.3362 25.3902 16.514 25.1623C16.6918 24.9344 16.943 24.7752 17.225 24.7117C18.3173 24.4722 19.3612 24.0495 20.3125 23.4617C20.5524 23.3108 20.8365 23.246 21.1181 23.2778C21.3998 23.3096 21.6622 23.4361 21.8625 23.6367L22.95 24.7242L24.7125 22.9617L23.625 21.8743C23.4244 21.674 23.2979 21.4116 23.2661 21.1299C23.2343 20.8483 23.2991 20.5642 23.45 20.3243C24.0363 19.3723 24.4589 18.3287 24.7 17.2369C24.7635 16.955 24.9228 16.7037 25.1507 16.5259C25.3786 16.3482 25.661 16.2549 25.95 16.262H27.5V13.7495H25.9625C25.6735 13.7566 25.3911 13.6633 25.1632 13.4856C24.9353 13.3078 24.776 13.0565 24.7125 12.7746C24.4714 11.6828 24.0488 10.6392 23.4625 9.68718C23.3116 9.44726 23.2468 9.16318 23.2786 8.88156C23.3104 8.59993 23.4369 8.33747 23.6375 8.13723L24.725 7.04976L22.95 5.27482L21.8625 6.36229C21.6622 6.56285 21.3998 6.68941 21.1181 6.72121C20.8365 6.75301 20.5524 6.68815 20.3125 6.53728C19.3612 5.94946 18.3173 5.52684 17.225 5.28732C16.943 5.22382 16.6918 5.06457 16.514 4.83667C16.3362 4.60877 16.2429 4.32631 16.25 4.03737V2.49992H13.75V4.03737C13.7571 4.32631 13.6638 4.60877 13.486 4.83667C13.3082 5.06457 13.057 5.22382 12.775 5.28732C11.6827 5.52684 10.6388 5.94946 9.6875 6.53728C9.44757 6.68815 9.16349 6.75301 8.88185 6.72121C8.60022 6.68941 8.33775 6.56285 8.1375 6.36229L7.05 5.27482L5.275 7.04976L6.3625 8.13723C6.56307 8.33747 6.68964 8.59993 6.72143 8.88156C6.75323 9.16318 6.68837 9.44726 6.5375 9.68718C5.95115 10.6392 5.52863 11.6828 5.2875 12.7746C5.224 13.0565 5.06474 13.3078 4.83683 13.4856C4.60892 13.6633 4.32645 13.7566 4.0375 13.7495H2.5V16.2495H4.0375C4.32645 16.2424 4.60892 16.3357 4.83683 16.5134C5.06474 16.6912 5.224 16.9425 5.2875 17.2244C5.52863 18.3162 5.95115 19.3598 6.5375 20.3118C6.68837 20.5517 6.75323 20.8358 6.72143 21.1174C6.68964 21.3991 6.56307 21.6615 6.3625 21.8618L5.275 22.9492L7.0375 24.7117L8.125 23.6242C8.32525 23.4236 8.58772 23.2971 8.86935 23.2653C9.15099 23.2335 9.43507 23.2983 9.675 23.4492C10.6263 24.037 11.6702 24.4597 12.7625 24.6992C13.0445 24.7627 13.2957 24.9219 13.4735 25.1498C13.6513 25.3777 13.7446 25.6602 13.7375 25.9491L13.75 27.4991Z" fill="white"/>
<path d="M15 21.2491C13.7639 21.2491 12.5555 20.8826 11.5277 20.1958C10.4999 19.5091 9.6988 18.533 9.22576 17.391C8.75271 16.249 8.62894 14.9924 8.87009 13.78C9.11125 12.5677 9.70651 11.4541 10.5806 10.58C11.4547 9.70599 12.5683 9.11075 13.7807 8.8696C14.9931 8.62845 16.2497 8.75222 17.3918 9.22525C18.5338 9.69828 19.5099 10.4993 20.1967 11.5271C20.8834 12.5549 21.25 13.7632 21.25 14.9993C21.25 16.6569 20.5915 18.2465 19.4194 19.4186C18.2473 20.5906 16.6576 21.2491 15 21.2491ZM15 11.2494C14.2583 11.2494 13.5333 11.4694 12.9166 11.8814C12.2999 12.2934 11.8193 12.8791 11.5355 13.5643C11.2516 14.2495 11.1774 15.0035 11.3221 15.7309C11.4668 16.4583 11.8239 17.1264 12.3484 17.6509C12.8728 18.1753 13.541 18.5324 14.2684 18.6771C14.9958 18.8218 15.7498 18.7476 16.4351 18.4637C17.1203 18.1799 17.706 17.6993 18.118 17.0826C18.5301 16.466 18.75 15.741 18.75 14.9993C18.75 14.0048 18.3549 13.051 17.6517 12.3477C16.9484 11.6445 15.9946 11.2494 15 11.2494Z" fill="white"/>
</svg>
