<svg width="30" height="30" viewBox="0 0 30 30" fill="none" xmlns="http://www.w3.org/2000/svg">
<path d="M26.25 30H3.75C2.75544 30 1.80161 29.6049 1.09835 28.9017C0.395088 28.1984 0 27.2446 0 26.25L0 3.75C0 2.75544 0.395088 1.80161 1.09835 1.09835C1.80161 0.395088 2.75544 0 3.75 0L26.25 0C27.2446 0 28.1984 0.395088 28.9017 1.09835C29.6049 1.80161 30 2.75544 30 3.75V26.25C30 27.2446 29.6049 28.1984 28.9017 28.9017C28.1984 29.6049 27.2446 30 26.25 30ZM3.75 2.5C3.41848 2.5 3.10054 2.6317 2.86612 2.86612C2.6317 3.10054 2.5 3.41848 2.5 3.75V26.25C2.5 26.5815 2.6317 26.8995 2.86612 27.1339C3.10054 27.3683 3.41848 27.5 3.75 27.5H26.25C26.5815 27.5 26.8995 27.3683 27.1339 27.1339C27.3683 26.8995 27.5 26.5815 27.5 26.25V3.75C27.5 3.41848 27.3683 3.10054 27.1339 2.86612C26.8995 2.6317 26.5815 2.5 26.25 2.5H3.75Z" fill="white"/>
<path d="M23.75 25H6.25C5.91848 25 5.60054 24.8683 5.36612 24.6339C5.1317 24.3995 5 24.0815 5 23.75V6.25C5 5.91848 5.1317 5.60054 5.36612 5.36612C5.60054 5.1317 5.91848 5 6.25 5C6.58152 5 6.89946 5.1317 7.13388 5.36612C7.3683 5.60054 7.5 5.91848 7.5 6.25V22.5H23.75C24.0815 22.5 24.3995 22.6317 24.6339 22.8661C24.8683 23.1005 25 23.4185 25 23.75C25 24.0815 24.8683 24.3995 24.6339 24.6339C24.3995 24.8683 24.0815 25 23.75 25Z" fill="white"/>
<path d="M11.25 21.25C10.9185 21.25 10.6005 21.1183 10.3661 20.8839C10.1317 20.6495 10 20.3315 10 20V12.5C10 12.1685 10.1317 11.8505 10.3661 11.6161C10.6005 11.3817 10.9185 11.25 11.25 11.25C11.5815 11.25 11.8995 11.3817 12.1339 11.6161C12.3683 11.8505 12.5 12.1685 12.5 12.5V20C12.5 20.3315 12.3683 20.6495 12.1339 20.8839C11.8995 21.1183 11.5815 21.25 11.25 21.25Z" fill="white"/>
<path d="M16.25 21.25C15.9185 21.25 15.6005 21.1183 15.3661 20.8839C15.1317 20.6495 15 20.3315 15 20V8.75C15 8.41848 15.1317 8.10054 15.3661 7.86612C15.6005 7.6317 15.9185 7.5 16.25 7.5C16.5815 7.5 16.8995 7.6317 17.1339 7.86612C17.3683 8.10054 17.5 8.41848 17.5 8.75V20C17.5 20.3315 17.3683 20.6495 17.1339 20.8839C16.8995 21.1183 16.5815 21.25 16.25 21.25Z" fill="white"/>
<path d="M21.25 21.25C20.9185 21.25 20.6005 21.1183 20.3661 20.8839C20.1317 20.6495 20 20.3315 20 20V12.5C20 12.1685 20.1317 11.8505 20.3661 11.6161C20.6005 11.3817 20.9185 11.25 21.25 11.25C21.5815 11.25 21.8995 11.3817 22.1339 11.6161C22.3683 11.8505 22.5 12.1685 22.5 12.5V20C22.5 20.3315 22.3683 20.6495 22.1339 20.8839C21.8995 21.1183 21.5815 21.25 21.25 21.25Z" fill="white"/>
</svg>
