<svg width="30" height="30" viewBox="0 0 30 30" fill="none" xmlns="http://www.w3.org/2000/svg">
<path d="M6.25 22.5H3.75C2.75544 22.5 1.80161 22.1444 1.09835 21.5115C0.395088 20.8786 0 20.0201 0 19.125L0 14.625C0 13.7299 0.395088 12.8714 1.09835 12.2385C1.80161 11.6056 2.75544 11.25 3.75 11.25H6.25C6.58152 11.25 6.89946 11.3685 7.13388 11.5795C7.3683 11.7905 7.5 12.0766 7.5 12.375V21.375C7.5 21.6734 7.3683 21.9595 7.13388 22.1705C6.89946 22.3815 6.58152 22.5 6.25 22.5ZM3.75 13.5C3.41848 13.5 3.10054 13.6185 2.86612 13.8295C2.6317 14.0405 2.5 14.3266 2.5 14.625V19.125C2.5 19.4234 2.6317 19.7095 2.86612 19.9205C3.10054 20.1315 3.41848 20.25 3.75 20.25H5V13.5H3.75Z" fill="white"/>
<path d="M26.25 22.5H23.75C23.4185 22.5 23.1005 22.3815 22.8661 22.1705C22.6317 21.9595 22.5 21.6734 22.5 21.375V12.375C22.5 12.0766 22.6317 11.7905 22.8661 11.5795C23.1005 11.3685 23.4185 11.25 23.75 11.25H26.25C27.2446 11.25 28.1984 11.6056 28.9017 12.2385C29.6049 12.8714 30 13.7299 30 14.625V19.125C30 20.0201 29.6049 20.8786 28.9017 21.5115C28.1984 22.1444 27.2446 22.5 26.25 22.5ZM25 20.25H26.25C26.5815 20.25 26.8995 20.1315 27.1339 19.9205C27.3683 19.7095 27.5 19.4234 27.5 19.125V14.625C27.5 14.3266 27.3683 14.0405 27.1339 13.8295C26.8995 13.6185 26.5815 13.5 26.25 13.5H25V20.25Z" fill="white"/>
<path d="M22.0711 5.42893C23.9464 7.3043 25 9.84783 25 12.5H27.5C27.5 9.18479 26.183 6.00537 23.8388 3.66117C21.4946 1.31696 18.3152 0 15 0C11.6848 0 8.50537 1.31696 6.16117 3.66117C3.81696 6.00537 2.5 9.18479 2.5 12.5H5C5 9.84783 6.05357 7.3043 7.92893 5.42893C9.8043 3.55357 12.3478 2.5 15 2.5C17.6522 2.5 20.1957 3.55357 22.0711 5.42893Z" fill="white"/>
<path d="M25 20.625H27.5C27.5 24.7671 24.1421 27.5 20 27.5H17.5V25H20C22.7614 25 25 23.3864 25 20.625Z" fill="white"/>
<path fill-rule="evenodd" clip-rule="evenodd" d="M16.25 25C15.5596 25 15 25.5596 15 26.25C15 26.9404 15.5596 27.5 16.25 27.5C16.9404 27.5 17.5 26.9404 17.5 26.25C17.5 25.5596 16.9404 25 16.25 25ZM12.5 26.25C12.5 24.1789 14.1789 22.5 16.25 22.5C18.3211 22.5 20 24.1789 20 26.25C20 28.3211 18.3211 30 16.25 30C14.1789 30 12.5 28.3211 12.5 26.25Z" fill="white"/>
</svg>
