<svg width="23" height="33" viewBox="0 0 23 33" fill="none" xmlns="http://www.w3.org/2000/svg">
<path d="M11.2887 27.0384C9.09043 27.0384 6.94147 26.4092 5.11363 25.2303C3.28579 24.0514 1.86117 22.3759 1.01991 20.4154C0.178644 18.455 -0.0414683 16.2978 0.387403 14.2167C0.816275 12.1355 1.87487 10.2239 3.42932 8.72342C4.98376 7.22299 6.96425 6.20118 9.12034 5.78721C11.2764 5.37324 13.5113 5.5857 15.5422 6.39773C17.5732 7.20976 19.3091 8.58488 20.5305 10.3492C21.7518 12.1135 22.4037 14.1878 22.4037 16.3098C22.4037 19.1552 21.2326 21.8841 19.1482 23.8961C17.0637 25.9081 14.2366 27.0384 11.2887 27.0384V27.0384ZM11.2887 8.26323C9.64001 8.26323 8.02829 8.73515 6.65741 9.61931C5.28653 10.5035 4.21806 11.7602 3.58712 13.2305C2.95617 14.7008 2.79109 16.3187 3.11274 17.8795C3.43439 19.4404 4.22834 20.8742 5.39417 21.9995C6.56001 23.1248 8.04538 23.8912 9.66244 24.2017C11.2795 24.5121 12.9556 24.3528 14.4789 23.7438C16.0021 23.1347 17.304 22.1034 18.22 20.7802C19.136 19.4569 19.6249 17.9012 19.6249 16.3098C19.6249 14.1757 18.7467 12.129 17.1833 10.62C15.62 9.11099 13.4996 8.26323 11.2887 8.26323Z" fill="#7161EF"/>
<path d="M18.2352 10.9455C17.8667 10.9455 17.5133 10.8042 17.2527 10.5527C16.9922 10.3012 16.8458 9.96008 16.8458 9.6044V4.24006C16.8458 3.88438 16.6994 3.54327 16.4389 3.29176C16.1783 3.04026 15.8249 2.89897 15.4564 2.89897H7.12024C6.75176 2.89897 6.39837 3.04026 6.13781 3.29176C5.87726 3.54327 5.73088 3.88438 5.73088 4.24006V9.6044C5.73088 9.96008 5.5845 10.3012 5.32394 10.5527C5.06339 10.8042 4.71 10.9455 4.34151 10.9455C3.97303 10.9455 3.61964 10.8042 3.35908 10.5527C3.09853 10.3012 2.95215 9.96008 2.95215 9.6044V4.24006C2.95215 3.17302 3.39129 2.14969 4.17295 1.39518C4.95462 0.640675 6.0148 0.216797 7.12024 0.216797L15.4564 0.216797C16.5619 0.216797 17.622 0.640675 18.4037 1.39518C19.1854 2.14969 19.6245 3.17302 19.6245 4.24006V9.6044C19.6245 9.96008 19.4781 10.3012 19.2176 10.5527C18.957 10.8042 18.6036 10.9455 18.2352 10.9455Z" fill="#7161EF"/>
<path d="M15.4564 32.4025H7.12024C6.0148 32.4025 4.95462 31.9786 4.17295 31.2241C3.39129 30.4696 2.95215 29.4463 2.95215 28.3793V23.0149C2.95215 22.6592 3.09853 22.3181 3.35908 22.0666C3.61964 21.8151 3.97303 21.6738 4.34151 21.6738C4.71 21.6738 5.06339 21.8151 5.32394 22.0666C5.5845 22.3181 5.73088 22.6592 5.73088 23.0149V28.3793C5.73088 28.7349 5.87726 29.076 6.13781 29.3276C6.39837 29.5791 6.75176 29.7203 7.12024 29.7203H15.4564C15.8249 29.7203 16.1783 29.5791 16.4389 29.3276C16.6994 29.076 16.8458 28.7349 16.8458 28.3793V23.0149C16.8458 22.6592 16.9922 22.3181 17.2527 22.0666C17.5133 21.8151 17.8667 21.6738 18.2352 21.6738C18.6036 21.6738 18.957 21.8151 19.2176 22.0666C19.4781 22.3181 19.6245 22.6592 19.6245 23.0149V28.3793C19.6245 29.4463 19.1854 30.4696 18.4037 31.2241C17.622 31.9786 16.5619 32.4025 15.4564 32.4025V32.4025Z" fill="#7161EF"/>
<path d="M16.8462 17.651H11.2888C10.9203 17.651 10.5669 17.5097 10.3063 17.2582C10.0458 17.0067 9.89941 16.6656 9.89941 16.3099V10.9456C9.89941 10.5899 10.0458 10.2488 10.3063 9.99729C10.5669 9.74579 10.9203 9.60449 11.2888 9.60449C11.6573 9.60449 12.0107 9.74579 12.2712 9.99729C12.5318 10.2488 12.6781 10.5899 12.6781 10.9456V14.9688H16.8462C17.2147 14.9688 17.5681 15.1101 17.8287 15.3616C18.0892 15.6131 18.2356 15.9542 18.2356 16.3099C18.2356 16.6656 18.0892 17.0067 17.8287 17.2582C17.5681 17.5097 17.2147 17.651 16.8462 17.651Z" fill="#7161EF"/>
</svg>
