<svg width="20" height="30" viewBox="0 0 20 30" fill="none" xmlns="http://www.w3.org/2000/svg">
<path d="M10 25C8.02219 25 6.08879 24.4135 4.4443 23.3147C2.79981 22.2159 1.51809 20.6541 0.761209 18.8268C0.00433281 16.9996 -0.193701 14.9889 0.192152 13.0491C0.578004 11.1093 1.53041 9.32746 2.92894 7.92894C4.32746 6.53041 6.10929 5.578 8.0491 5.19215C9.98891 4.8063 11.9996 5.00433 13.8268 5.76121C15.6541 6.51809 17.2159 7.79981 18.3147 9.4443C19.4135 11.0888 20 13.0222 20 15C20 17.6522 18.9464 20.1957 17.0711 22.0711C15.1957 23.9464 12.6522 25 10 25ZM10 7.5C8.51664 7.5 7.0666 7.93987 5.83323 8.76398C4.59986 9.58809 3.63856 10.7594 3.07091 12.1299C2.50325 13.5003 2.35473 15.0083 2.64411 16.4632C2.9335 17.918 3.64781 19.2544 4.6967 20.3033C5.7456 21.3522 7.08197 22.0665 8.53683 22.3559C9.99168 22.6453 11.4997 22.4968 12.8701 21.9291C14.2406 21.3614 15.4119 20.4002 16.236 19.1668C17.0601 17.9334 17.5 16.4834 17.5 15C17.5 13.0109 16.7098 11.1032 15.3033 9.6967C13.8968 8.29018 11.9891 7.5 10 7.5Z" fill="white"/>
<path d="M16.25 10C15.9185 10 15.6005 9.8683 15.3661 9.63388C15.1317 9.39946 15 9.08152 15 8.75V3.75C15 3.41848 14.8683 3.10054 14.6339 2.86612C14.3995 2.6317 14.0815 2.5 13.75 2.5H6.25C5.91848 2.5 5.60054 2.6317 5.36612 2.86612C5.1317 3.10054 5 3.41848 5 3.75V8.75C5 9.08152 4.8683 9.39946 4.63388 9.63388C4.39946 9.8683 4.08152 10 3.75 10C3.41848 10 3.10054 9.8683 2.86612 9.63388C2.6317 9.39946 2.5 9.08152 2.5 8.75V3.75C2.5 2.75544 2.89509 1.80161 3.59835 1.09835C4.30161 0.395088 5.25544 0 6.25 0L13.75 0C14.7446 0 15.6984 0.395088 16.4017 1.09835C17.1049 1.80161 17.5 2.75544 17.5 3.75V8.75C17.5 9.08152 17.3683 9.39946 17.1339 9.63388C16.8995 9.8683 16.5815 10 16.25 10Z" fill="white"/>
<path d="M13.75 30H6.25C5.25544 30 4.30161 29.6049 3.59835 28.9017C2.89509 28.1984 2.5 27.2446 2.5 26.25V21.25C2.5 20.9185 2.6317 20.6005 2.86612 20.3661C3.10054 20.1317 3.41848 20 3.75 20C4.08152 20 4.39946 20.1317 4.63388 20.3661C4.8683 20.6005 5 20.9185 5 21.25V26.25C5 26.5815 5.1317 26.8995 5.36612 27.1339C5.60054 27.3683 5.91848 27.5 6.25 27.5H13.75C14.0815 27.5 14.3995 27.3683 14.6339 27.1339C14.8683 26.8995 15 26.5815 15 26.25V21.25C15 20.9185 15.1317 20.6005 15.3661 20.3661C15.6005 20.1317 15.9185 20 16.25 20C16.5815 20 16.8995 20.1317 17.1339 20.3661C17.3683 20.6005 17.5 20.9185 17.5 21.25V26.25C17.5 27.2446 17.1049 28.1984 16.4017 28.9017C15.6984 29.6049 14.7446 30 13.75 30Z" fill="white"/>
<path d="M15 16.25H10C9.66848 16.25 9.35054 16.1183 9.11612 15.8839C8.8817 15.6495 8.75 15.3315 8.75 15V10C8.75 9.66848 8.8817 9.35054 9.11612 9.11612C9.35054 8.8817 9.66848 8.75 10 8.75C10.3315 8.75 10.6495 8.8817 10.8839 9.11612C11.1183 9.35054 11.25 9.66848 11.25 10V13.75H15C15.3315 13.75 15.6495 13.8817 15.8839 14.1161C16.1183 14.3505 16.25 14.6685 16.25 15C16.25 15.3315 16.1183 15.6495 15.8839 15.8839C15.6495 16.1183 15.3315 16.25 15 16.25Z" fill="white"/>
</svg>
